<?xml version="1.0" encoding="UTF-8"?>
<svg id="Livello_1" data-name="Livello 1" xmlns="http://www.w3.org/2000/svg" viewBox="0 0 1000 253.87">
  <defs>
    <style>
      .cls-1 {
        stroke-width: 0px;
      }
    </style>
  </defs>
  <path class="cls-1" d="M411.14,78.17c7.89,7.25,16.93,10.88,27.14,10.88,4.06,0,8.56-.72,13.51-2.15,4.94-1.44,7.85-2.15,8.73-2.15,1.99,0,3.74.84,5.26,2.51h1.79v-25.46h-1.32c-.8,3.19-1.55,5.86-2.27,8.01-.72,2.15-1.79,4.42-3.23,6.81-1.44,2.39-3.09,4.3-4.96,5.74s-4.3,2.63-7.29,3.59c-2.99.96-6.39,1.43-10.22,1.43-10.04,0-17.21-3.46-21.52-10.4-4.3-6.93-6.45-17.77-6.45-32.51s2.33-25.96,6.99-32.69,11.61-10.1,20.86-10.1c7.09,0,12.79,1.89,17.09,5.68,4.3,3.79,7.41,10.02,9.32,18.71h1.32V2.15h-1.79c-1.51,1.67-3.27,2.51-5.26,2.51-1.12,0-3.75-.78-7.89-2.33-4.14-1.55-8.05-2.33-11.72-2.33-5.5,0-10.92,1.12-16.25,3.35-5.34,2.23-10.04,5.58-14.1,10.04-8.21,9.09-12.31,19.6-12.31,31.56,0,6.3,1.3,12.35,3.89,18.17,2.59,5.82,6.16,10.84,10.7,15.06Z"/>
  <path class="cls-1" d="M509.99,79.61c.72,3.19,1.99,5.54,3.82,7.05,1.83,1.51,4.5,2.27,8.01,2.27s6.33-1,8.96-2.99l-.96-1.32c-1.91,1.28-3.74,1.91-5.5,1.91-2.79,0-4.18-1.87-4.18-5.62v-30.24c0-5.02-1.63-8.98-4.9-11.89-3.27-2.91-8.09-4.36-14.47-4.36-5.66,0-10.18,1.25-13.56,3.76-3.39,2.51-5.08,5.68-5.08,9.5,0,1.83.4,3.15,1.19,3.95.8.8,2.31,1.19,4.54,1.19,1.51,0,2.69-.38,3.53-1.13.84-.76,1.25-1.69,1.25-2.81,0-.32-.12-1.3-.36-2.93-.24-1.63-.36-2.93-.36-3.88,0-3.98,3.03-5.98,9.09-5.98,3.42,0,5.82.92,7.17,2.75,1.35,1.83,2.03,5.02,2.03,9.56,0,2.95-.24,5.06-.72,6.33-.48,1.28-1.28,2.39-2.39,3.35-1.67,1.36-6.02,3.03-13.03,5.02-6.77,1.99-11,3.99-12.67,5.98-1.91,2.31-2.87,5.06-2.87,8.25,0,7.73,5.14,11.59,15.42,11.59,8.21,0,13.47-3.11,15.78-9.32h.24ZM497.68,86.54c-5.9,0-8.85-3.51-8.85-10.52,0-5.42,2.75-9.24,8.25-11.48.8-.32,1.79-.72,2.99-1.19s2.09-.84,2.69-1.08c.6-.24,1.32-.54,2.15-.9.84-.36,1.47-.66,1.91-.9.44-.24.9-.5,1.37-.78.48-.28.82-.56,1.02-.84.2-.28.34-.58.42-.9h.24v12.31c0,5.1-1.03,9.08-3.11,11.95-2.07,2.87-5.1,4.3-9.08,4.3Z"/>
  <path class="cls-1" d="M562.82,85.58h-9.21v-27.49c0-5.9,1.86-11,5.56-15.3,3.7-4.3,8.19-6.45,13.45-6.45,3.03,0,5.3.96,6.81,2.87,1.51,1.91,2.27,4.38,2.27,7.41v38.97h-9.21v1.67h28.69v-1.67h-9.21v-35.14c0-5.1-1.57-9-4.72-11.71-3.15-2.71-7.51-4.06-13.09-4.06-9.48,0-16.33,4.7-20.56,14.1h-.24v-12.79h-19.24v1.67h9.2v47.93h-9.2v1.67h28.69v-1.67Z"/>
  <path class="cls-1" d="M644.58,77.81l-1.67-.6c-.48,2.87-1.61,5.26-3.4,7.17s-4,2.87-6.63,2.87c-4.78,0-7.17-3.39-7.17-10.16v-39.45h16.97v-1.67h-16.97v-16.37c-1.44,1.19-3.35,1.79-5.74,1.79-1.6,0-3.11-.28-4.54-.84v15.42h-9.21v1.67h9.21v38.25c0,8.69,5.3,13.03,15.89,13.03,7.17,0,11.59-3.7,13.27-11.12Z"/>
  <path class="cls-1" d="M661.43,14.46c1.75,0,3.25-.62,4.48-1.85,1.23-1.24,1.85-2.73,1.85-4.48s-.62-3.25-1.85-4.48c-1.24-1.24-2.73-1.85-4.48-1.85s-3.25.62-4.48,1.85c-1.24,1.24-1.85,2.73-1.85,4.48s.61,3.25,1.85,4.48c1.23,1.24,2.73,1.85,4.48,1.85Z"/>
  <polygon class="cls-1" points="676.01 85.58 666.81 85.58 666.81 35.98 647.33 35.98 647.33 37.65 656.53 37.65 656.53 85.58 647.33 85.58 647.33 87.26 676.01 87.26 676.01 85.58"/>
  <path class="cls-1" d="M711.03,85.58h-9.21v-27.49c0-5.9,1.86-11,5.56-15.3,3.7-4.3,8.19-6.45,13.45-6.45,3.03,0,5.3.96,6.81,2.87,1.51,1.91,2.27,4.38,2.27,7.41v38.97h-9.21v1.67h28.69v-1.67h-9.21v-35.14c0-5.1-1.57-9-4.72-11.71-3.15-2.71-7.51-4.06-13.09-4.06-9.48,0-16.33,4.7-20.56,14.1h-.24v-12.79h-19.24v1.67h9.2v47.93h-9.2v1.67h28.69v-1.67Z"/>
  <path class="cls-1" d="M785.38,88.93c10.84,0,17.61-4.94,20.32-14.82l-1.79-.36c-2.63,9.01-8.77,13.51-18.41,13.51-10.52,0-15.78-7.45-15.78-22.35,0-3.11.04-5.54.12-7.29h36.82c0-7.33-2.17-13.03-6.51-17.09-4.35-4.06-9.58-6.1-15.72-6.1-7.25,0-13.51,2.77-18.77,8.31-5.26,5.54-7.89,11.93-7.89,19.18,0,8.05,2.57,14.56,7.71,19.54,5.14,4.98,11.77,7.47,19.9,7.47ZM773.96,41.06c2.19-3.31,5.72-4.96,10.58-4.96,6.77,0,10.16,4.66,10.16,13.98,0,1.36-.08,3.31-.24,5.86h-24.5c.48-6.61,1.81-11.57,4-14.88Z"/>
  <path class="cls-1" d="M128.41,169.43c-9.77-8.35-22.43-13.28-37.96-14.78v-.5c13.19-1.67,23.89-6.26,32.07-13.78,8.18-7.52,12.28-16.29,12.28-26.31,0-12.69-5.3-22.97-15.91-30.82-10.61-7.85-25.1-11.78-43.47-11.78-3.18,0-8.94.12-17.29.38-8.35.25-14.87.38-19.54.38H0v3.51h27.81v171.39H0v3.51h45.85c2.84,0,7.6.17,14.28.5,6.68.33,11.36.5,14.03.5,21.71,0,38.62-4.55,50.74-13.66,12.11-9.1,18.17-21.67,18.17-37.71,0-12.19-4.89-22.46-14.66-30.82ZM52.87,75.71c3.84-.5,9.52-.75,17.04-.75,13.53,0,23.14,3.22,28.82,9.65,5.68,6.43,8.52,16.5,8.52,30.19s-2.51,23.1-7.52,29.19c-5.01,6.1-12.7,9.15-23.05,9.15h-23.8v-77.42ZM104.99,236.83c-6.35,7.52-18.63,11.28-36.84,11.28-2.34,0-5.43-.16-9.27-.5-3.84-.33-5.85-.5-6.01-.5v-90.46h28.06c10.35,0,18.5,3.72,24.43,11.15,5.93,7.44,8.89,18.17,8.89,32.2,0,17.21-3.09,29.49-9.27,36.83Z"/>
  <path class="cls-1" d="M355.93,156.77c-12.28-11.28-25.6-16.91-39.96-16.91s-27.48,5.64-39.84,16.91c-2.19,2-4.17,4.06-5.97,6.18-1.79-2.12-3.76-4.19-5.93-6.18-12.28-11.28-25.6-16.91-39.96-16.91s-27.48,5.64-39.84,16.91c-12.36,11.28-18.54,24.6-18.54,39.97s5.97,28.73,17.91,40.09c11.94,11.36,25.43,17.04,40.47,17.04s28.73-5.68,40.59-17.04c1.93-1.85,3.69-3.76,5.31-5.71,1.63,1.96,3.4,3.86,5.34,5.71,11.94,11.36,25.43,17.04,40.47,17.04s28.73-5.68,40.59-17.04c11.86-11.36,17.79-24.72,17.79-40.09s-6.14-28.69-18.42-39.97ZM254.82,225.8c-1.84,7.69-4.51,13.16-8.02,16.41-3.51,3.26-6.93,5.43-10.27,6.52-3.34,1.09-7.44,1.63-12.28,1.63-5.35,0-9.9-.71-13.66-2.13-3.76-1.42-7.18-4.01-10.27-7.77-3.09-3.76-5.43-9.27-7.02-16.54-1.59-7.27-2.38-16.33-2.38-27.19,0-18.54,2.54-32.07,7.64-40.59,5.09-8.52,13.57-12.78,25.43-12.78s20.63,4.13,25.81,12.4c5.17,8.27,7.77,21.92,7.77,40.97,0,11.69-.92,21.38-2.76,29.06ZM346.53,225.8c-1.84,7.69-4.51,13.16-8.02,16.41-3.51,3.26-6.93,5.43-10.27,6.52-3.34,1.09-7.44,1.63-12.28,1.63-5.35,0-9.9-.71-13.66-2.13-3.76-1.42-7.18-4.01-10.27-7.77-3.09-3.76-5.43-9.27-7.02-16.54-1.59-7.27-2.38-16.33-2.38-27.19,0-18.54,2.54-32.07,7.64-40.59,5.09-8.52,13.57-12.78,25.43-12.78s20.63,4.13,25.81,12.4c5.17,8.27,7.77,21.92,7.77,40.97,0,11.69-.92,21.38-2.76,29.06Z"/>
  <path class="cls-1" d="M478.2,238.83c-5.26,5.51-13.66,8.27-25.18,8.27h-23.3v-100.48h18.54v-3.51h-58.63v3.51h18.54v100.48h-18.54v3.51h103.73v-38.34h-2.75c-3.01,12.2-7.14,21.05-12.4,26.56Z"/>
  <path class="cls-1" d="M575.29,247.1h-25.81v-52.62h12.03c6.85,0,11.94,1.8,15.28,5.39,3.34,3.59,5.35,9.06,6.02,16.41h2.75v-47.86h-2.75c-.34,7.18-2.47,12.74-6.39,16.66-3.93,3.93-8.73,5.89-14.41,5.89h-12.53v-44.35h32.57c10.52,0,18.2,7.43,23.05,22.3h2.76v-25.81h-98.22v3.51h18.29v100.48h-18.29v3.51h105.24v-36.08h-2.76c-4.01,21.72-16.29,32.57-36.83,32.57Z"/>
  <path class="cls-1" d="M689.3,139.86h-4.76l-46.35,107.24h-13.78v3.51h34.83v-3.51h-17.54l18.04-41.09h36.33l18.79,41.09h-17.79v3.51h56.63v-3.51h-14.53l-49.86-107.24ZM660.99,202.5l16.03-38.09,17.29,38.09h-33.33Z"/>
  <polygon class="cls-1" points="839.64 146.63 856.68 146.63 856.68 216.78 856.18 216.78 799.3 143.12 760.21 143.12 760.21 146.63 777.75 146.63 777.75 247.1 760.21 247.1 760.21 250.61 798.3 250.61 798.3 247.1 781.26 247.1 781.26 154.89 781.76 154.89 856.68 250.61 860.18 250.61 860.18 146.63 877.73 146.63 877.73 143.12 839.64 143.12 839.64 146.63"/>
  <path class="cls-1" d="M997.24,214.53c-4.01,21.72-16.29,32.57-36.83,32.57h-25.81v-52.62h12.03c6.85,0,11.94,1.8,15.28,5.39,3.34,3.59,5.35,9.06,6.02,16.41h2.75v-47.86h-2.75c-.34,7.18-2.47,12.74-6.39,16.66-3.93,3.93-8.73,5.89-14.41,5.89h-12.53v-44.35h32.57c10.52,0,18.2,7.43,23.05,22.3h2.76v-25.81h-98.22v3.51h18.29v100.48h-18.29v3.51h105.24v-36.08h-2.76Z"/>
</svg>